<mxfile host="app.diagrams.net" modified="2020-03-21T20:54:50.726Z" agent="Mozilla/5.0 (Macintosh; Intel Mac OS X 10_15_2) AppleWebKit/537.36 (KHTML, like Gecko) Chrome/79.0.3945.130 Safari/537.36" etag="rsHACv4sJv0ze289HlV_" version="12.8.8" type="github">
  <diagram id="aVEWG8cjJf9Gxxrswu7k" name="Page-1">
    <mxGraphModel dx="1310" dy="827" grid="0" gridSize="10" guides="1" tooltips="1" connect="1" arrows="1" fold="1" page="1" pageScale="1" pageWidth="827" pageHeight="1169" math="0" shadow="0">
      <root>
        <mxCell id="0" />
        <mxCell id="1" parent="0" />
        <mxCell id="R6d4T7t4V1BRc_QgAlS4-9" style="edgeStyle=orthogonalEdgeStyle;rounded=0;orthogonalLoop=1;jettySize=auto;html=1;exitX=0.5;exitY=0;exitDx=0;exitDy=0;entryX=0;entryY=0.5;entryDx=0;entryDy=0;" parent="1" source="R6d4T7t4V1BRc_QgAlS4-5" target="R6d4T7t4V1BRc_QgAlS4-6" edge="1">
          <mxGeometry relative="1" as="geometry">
            <mxPoint x="320" y="500" as="targetPoint" />
          </mxGeometry>
        </mxCell>
        <mxCell id="R6d4T7t4V1BRc_QgAlS4-5" value="&lt;span id=&quot;docs-internal-guid-c69a7b36-7fff-ca42-4f69-aa0f96ac0ebd&quot;&gt;&lt;span style=&quot;font-family: &amp;#34;arial&amp;#34; ; background-color: transparent ; vertical-align: baseline ; white-space: pre-wrap&quot;&gt;&lt;font style=&quot;font-size: 19px&quot;&gt;Eye tracker&lt;/font&gt;&lt;/span&gt;&lt;/span&gt;" style="rounded=1;whiteSpace=wrap;html=1;absoluteArcSize=1;arcSize=14;strokeWidth=2;" parent="1" vertex="1">
          <mxGeometry x="45" y="710" width="100" height="100" as="geometry" />
        </mxCell>
        <mxCell id="xE8J_TVKheGs-PXvTI5i-3" style="edgeStyle=orthogonalEdgeStyle;rounded=0;orthogonalLoop=1;jettySize=auto;html=1;entryX=0.5;entryY=0;entryDx=0;entryDy=0;" parent="1" source="R6d4T7t4V1BRc_QgAlS4-6" target="R6d4T7t4V1BRc_QgAlS4-7" edge="1">
          <mxGeometry relative="1" as="geometry" />
        </mxCell>
        <mxCell id="R6d4T7t4V1BRc_QgAlS4-6" value="&lt;span id=&quot;docs-internal-guid-b947add7-7fff-3c34-f870-ee045d7527ad&quot;&gt;&lt;span style=&quot;font-family: &amp;#34;arial&amp;#34; ; background-color: transparent ; vertical-align: baseline ; white-space: pre-wrap&quot;&gt;&lt;font style=&quot;font-size: 19px&quot;&gt;Unity application&lt;br&gt;(geometry mapping)&lt;br&gt;&lt;/font&gt;&lt;/span&gt;&lt;/span&gt;" style="rounded=1;whiteSpace=wrap;html=1;absoluteArcSize=1;arcSize=14;strokeWidth=2;" parent="1" vertex="1">
          <mxGeometry x="232" y="577" width="200" height="94" as="geometry" />
        </mxCell>
        <mxCell id="R6d4T7t4V1BRc_QgAlS4-13" style="edgeStyle=orthogonalEdgeStyle;rounded=0;orthogonalLoop=1;jettySize=auto;html=1;exitX=0.5;exitY=1;exitDx=0;exitDy=0;entryX=1;entryY=0.5;entryDx=0;entryDy=0;" parent="1" source="R6d4T7t4V1BRc_QgAlS4-7" target="R6d4T7t4V1BRc_QgAlS4-11" edge="1">
          <mxGeometry relative="1" as="geometry" />
        </mxCell>
        <mxCell id="R6d4T7t4V1BRc_QgAlS4-7" value="&lt;span id=&quot;docs-internal-guid-a6160efe-7fff-7b98-e183-7bba76c2c2b3&quot;&gt;&lt;span style=&quot;font-family: &amp;#34;arial&amp;#34; ; background-color: transparent ; vertical-align: baseline ; white-space: pre-wrap&quot;&gt;&lt;font style=&quot;font-size: 19px&quot;&gt;Display module&lt;/font&gt;&lt;/span&gt;&lt;/span&gt;" style="rounded=1;whiteSpace=wrap;html=1;absoluteArcSize=1;arcSize=14;strokeWidth=2;" parent="1" vertex="1">
          <mxGeometry x="537" y="710" width="100" height="100" as="geometry" />
        </mxCell>
        <mxCell id="R6d4T7t4V1BRc_QgAlS4-12" style="edgeStyle=orthogonalEdgeStyle;rounded=0;orthogonalLoop=1;jettySize=auto;html=1;exitX=0;exitY=0.5;exitDx=0;exitDy=0;" parent="1" source="R6d4T7t4V1BRc_QgAlS4-11" target="R6d4T7t4V1BRc_QgAlS4-5" edge="1">
          <mxGeometry relative="1" as="geometry" />
        </mxCell>
        <mxCell id="R6d4T7t4V1BRc_QgAlS4-11" value="" style="shape=image;html=1;verticalAlign=top;verticalLabelPosition=bottom;labelBackgroundColor=#ffffff;imageAspect=0;aspect=fixed;image=https://cdn2.iconfinder.com/data/icons/freecns-cumulus/16/519620-119_Eye-128.png" parent="1" vertex="1">
          <mxGeometry x="290" y="830" width="98" height="98" as="geometry" />
        </mxCell>
        <mxCell id="DoFqc-4j_FSao7WNbRP5-1" value="&lt;font style=&quot;font-size: 17px&quot;&gt;Visual Signal&lt;/font&gt;" style="text;html=1;resizable=0;points=[];autosize=1;align=left;verticalAlign=top;spacingTop=-4;" parent="1" vertex="1">
          <mxGeometry x="135" y="842" width="110" height="20" as="geometry" />
        </mxCell>
        <mxCell id="DoFqc-4j_FSao7WNbRP5-2" value="&lt;font style=&quot;font-size: 17px&quot;&gt;Gaze vectors&lt;br&gt;&lt;/font&gt;" style="text;html=1;resizable=0;points=[];autosize=1;align=left;verticalAlign=top;spacingTop=-4;" parent="1" vertex="1">
          <mxGeometry x="101.5" y="591" width="110" height="16" as="geometry" />
        </mxCell>
        <mxCell id="DoFqc-4j_FSao7WNbRP5-5" value="&lt;span style=&quot;font-size: 17px&quot;&gt;Virtual image&lt;/span&gt;" style="text;html=1;resizable=0;points=[];autosize=1;align=left;verticalAlign=top;spacingTop=-4;" parent="1" vertex="1">
          <mxGeometry x="442" y="842" width="110" height="20" as="geometry" />
        </mxCell>
        <mxCell id="R3OD7dJ-SccZQyn8wSnz-1" style="edgeStyle=orthogonalEdgeStyle;rounded=0;orthogonalLoop=1;jettySize=auto;html=1;" parent="1" source="xE8J_TVKheGs-PXvTI5i-4" target="R6d4T7t4V1BRc_QgAlS4-6" edge="1">
          <mxGeometry relative="1" as="geometry" />
        </mxCell>
        <mxCell id="xE8J_TVKheGs-PXvTI5i-4" value="&lt;span id=&quot;docs-internal-guid-b947add7-7fff-3c34-f870-ee045d7527ad&quot;&gt;&lt;span style=&quot;font-family: &amp;#34;arial&amp;#34; ; background-color: transparent ; vertical-align: baseline ; white-space: pre-wrap&quot;&gt;&lt;font style=&quot;font-size: 19px&quot;&gt;Stereo vision&lt;br/&gt;System&lt;br/&gt;&lt;/font&gt;&lt;/span&gt;&lt;/span&gt;" style="rounded=1;whiteSpace=wrap;html=1;absoluteArcSize=1;arcSize=14;strokeWidth=2;" parent="1" vertex="1">
          <mxGeometry x="319" y="356" width="130" height="100" as="geometry" />
        </mxCell>
        <mxCell id="R3OD7dJ-SccZQyn8wSnz-2" value="&lt;font style=&quot;font-size: 17px&quot;&gt;3D position&lt;br&gt;&amp;nbsp;of QR code&lt;/font&gt;" style="text;html=1;resizable=0;points=[];autosize=1;align=left;verticalAlign=top;spacingTop=-4;" parent="1" vertex="1">
          <mxGeometry x="388" y="466" width="101" height="32" as="geometry" />
        </mxCell>
        <mxCell id="fQ6X436d_nacdExeBu2V-1" value="&lt;span id=&quot;docs-internal-guid-b947add7-7fff-3c34-f870-ee045d7527ad&quot;&gt;&lt;span style=&quot;font-family: &amp;#34;arial&amp;#34; ; background-color: transparent ; vertical-align: baseline ; white-space: pre-wrap&quot;&gt;&lt;font style=&quot;font-size: 19px&quot;&gt;QR marker&lt;br&gt;(target object)&lt;br&gt;&lt;/font&gt;&lt;/span&gt;&lt;/span&gt;" style="rounded=1;whiteSpace=wrap;html=1;absoluteArcSize=1;arcSize=14;strokeWidth=2;" vertex="1" parent="1">
          <mxGeometry x="45" y="356" width="130" height="100" as="geometry" />
        </mxCell>
        <mxCell id="fQ6X436d_nacdExeBu2V-3" style="edgeStyle=orthogonalEdgeStyle;rounded=0;orthogonalLoop=1;jettySize=auto;html=1;exitX=1;exitY=0.5;exitDx=0;exitDy=0;entryX=0;entryY=0.5;entryDx=0;entryDy=0;" edge="1" parent="1" source="fQ6X436d_nacdExeBu2V-1" target="xE8J_TVKheGs-PXvTI5i-4">
          <mxGeometry relative="1" as="geometry">
            <mxPoint x="281" y="631" as="targetPoint" />
            <mxPoint x="103" y="726" as="sourcePoint" />
          </mxGeometry>
        </mxCell>
        <mxCell id="fQ6X436d_nacdExeBu2V-4" value="&lt;font style=&quot;font-size: 17px&quot;&gt;Rendered frame&lt;br&gt;&lt;/font&gt;" style="text;html=1;resizable=0;points=[];autosize=1;align=left;verticalAlign=top;spacingTop=-4;" vertex="1" parent="1">
          <mxGeometry x="462" y="591" width="133" height="16" as="geometry" />
        </mxCell>
        <mxCell id="fQ6X436d_nacdExeBu2V-5" value="&lt;font style=&quot;font-size: 17px&quot;&gt;Visual Signal&lt;/font&gt;" style="text;html=1;resizable=0;points=[];autosize=1;align=left;verticalAlign=top;spacingTop=-4;" vertex="1" parent="1">
          <mxGeometry x="192" y="412" width="110" height="20" as="geometry" />
        </mxCell>
      </root>
    </mxGraphModel>
  </diagram>
</mxfile>
